<?xml version="1.0" standalone="no"?>
<!DOCTYPE svg PUBLIC "-//W3C//DTD SVG 20010904//EN"
 "http://www.w3.org/TR/2001/REC-SVG-20010904/DTD/svg10.dtd">
<svg version="1.0" xmlns="http://www.w3.org/2000/svg"
 width="937.000000pt" height="961.000000pt" viewBox="0 0 937.000000 961.000000"
 preserveAspectRatio="xMidYMid meet">

<g transform="translate(0.000000,961.000000) scale(0.100000,-0.100000)"
fill="#c20000" stroke="none">
<path d="M5385 8092 c-20 -4 -20 -12 10 -317 9 -88 20 -207 25 -265 5 -58 17
-179 25 -270 9 -91 20 -212 25 -270 5 -58 16 -177 25 -265 9 -88 20 -207 25
-265 5 -58 14 -145 19 -195 6 -49 15 -142 21 -205 6 -63 15 -160 21 -215 6
-55 15 -145 19 -200 5 -55 16 -172 25 -260 9 -88 20 -207 25 -265 4 -58 13
-143 19 -190 5 -47 14 -137 20 -200 6 -63 16 -164 22 -225 6 -60 14 -157 19
-215 5 -58 16 -181 25 -275 9 -93 20 -215 25 -270 20 -225 30 -335 40 -425 5
-52 17 -169 25 -260 8 -91 20 -214 25 -275 6 -60 15 -155 21 -210 6 -55 15
-145 20 -200 5 -55 16 -167 24 -250 9 -82 20 -195 25 -250 4 -55 13 -140 18
-190 6 -49 16 -144 22 -210 6 -66 17 -179 25 -250 8 -72 15 -148 15 -170 0
-21 4 -75 10 -119 5 -45 17 -151 25 -236 8 -85 20 -198 25 -250 5 -52 13 -130
16 -172 3 -43 10 -80 15 -83 5 -4 88 -7 184 -9 130 -2 178 0 185 9 6 7 15 89
20 181 5 93 12 183 15 201 3 18 10 76 15 130 8 87 20 183 50 413 8 58 26 170
51 315 16 94 39 210 55 280 9 39 20 88 24 110 37 186 172 640 270 905 17 47
35 96 39 110 9 28 106 258 141 335 13 28 36 79 52 115 68 150 221 447 275 532
12 21 23 40 23 43 0 3 17 34 38 68 97 157 198 337 251 449 85 179 121 258 121
269 0 5 4 17 10 27 8 14 49 142 79 247 46 157 91 478 91 643 0 89 -24 343 -41
432 -29 153 -44 224 -69 315 -28 102 -87 272 -116 335 -93 200 -154 310 -236
421 -60 81 -227 269 -274 308 -16 14 -56 48 -89 76 -33 29 -87 72 -120 96 -33
24 -62 46 -65 49 -10 10 -122 84 -163 107 -63 36 -307 156 -347 172 -271 104
-514 165 -835 211 -87 12 -351 27 -380 22z"/>
<path d="M1807 8084 c-9 -10 -8 -7887 2 -7903 7 -11 141 -14 750 -16 730 -3
742 -2 752 17 6 11 15 72 20 136 4 65 15 189 24 277 9 88 20 207 25 265 5 58
12 125 16 149 3 24 10 91 15 150 4 58 15 180 24 271 20 208 31 332 45 490 5
69 14 166 20 215 5 50 16 171 25 270 8 99 20 223 25 275 15 141 30 311 41 435
5 61 16 175 24 255 9 80 20 195 25 255 5 61 13 153 19 205 5 52 15 151 21 220
6 69 15 166 21 215 5 50 14 142 19 205 5 63 17 185 25 270 9 85 20 198 25 250
5 52 16 169 25 260 9 91 20 210 25 265 5 55 16 172 25 260 8 88 20 207 25 265
5 58 13 155 19 215 6 61 15 160 21 220 19 202 40 429 50 530 5 55 12 134 15
175 3 41 10 116 15 165 5 50 16 167 25 260 8 94 20 213 25 265 5 52 11 122 12
155 l3 60 -1121 3 c-616 1 -1123 -1 -1127 -4z"/>
<path d="M4588 1501 c-122 -39 -235 -135 -285 -241 -45 -94 -44 -80 -43 -593
0 -270 2 -492 4 -495 3 -2 200 -6 440 -9 309 -3 440 -1 455 7 21 11 21 14 21
478 -1 496 -3 526 -50 625 -26 55 -117 153 -171 186 -105 62 -255 79 -371 42z"/>
</g>
</svg>
